<svg xmlns="http://www.w3.org/2000/svg" xmlns:xlink="http://www.w3.org/1999/xlink" width="500" zoomAndPan="magnify" viewBox="0 0 375 374.999991" height="500" preserveAspectRatio="xMidYMid meet" version="1.0"><defs><clipPath id="307698b0f9"><path d="M 23.5625 18.054688 L 351.3125 18.054688 L 351.3125 357 L 23.5625 357 Z M 23.5625 18.054688 " clip-rule="nonzero"/></clipPath></defs><rect x="-37.5" width="450" fill="#ffffff" y="-37.499999" height="449.999989" fill-opacity="1"/><rect x="-37.5" width="450" fill="#ffffff" y="-37.499999" height="449.999989" fill-opacity="1"/><g clip-path="url(#307698b0f9)"><path fill="#0977ca" d="M 345.667969 279.542969 L 308.84375 279.542969 L 308.84375 249.539062 C 310.285156 249.394531 311.722656 249.179688 313.144531 248.902344 C 314.570312 248.625 315.980469 248.28125 317.371094 247.875 C 318.765625 247.464844 320.136719 246.996094 321.488281 246.460938 C 322.835938 245.925781 324.160156 245.332031 325.453125 244.675781 C 326.75 244.019531 328.011719 243.308594 329.242188 242.535156 C 330.46875 241.765625 331.664062 240.9375 332.816406 240.058594 C 333.96875 239.175781 335.082031 238.246094 336.148438 237.261719 C 337.214844 236.277344 338.238281 235.25 339.210938 234.171875 C 340.183594 233.09375 341.105469 231.976562 341.976562 230.8125 C 342.847656 229.652344 343.660156 228.453125 344.421875 227.214844 C 345.179688 225.980469 345.882812 224.710938 346.527344 223.410156 C 347.171875 222.109375 347.753906 220.78125 348.273438 219.425781 C 348.796875 218.070312 349.253906 216.695312 349.648438 215.296875 C 350.042969 213.902344 350.375 212.488281 350.640625 211.0625 C 350.902344 209.636719 351.101562 208.199219 351.238281 206.753906 C 351.371094 205.308594 351.4375 203.859375 351.4375 202.40625 C 351.4375 200.957031 351.371094 199.507812 351.238281 198.0625 C 351.101562 196.617188 350.902344 195.179688 350.640625 193.753906 C 350.375 192.328125 350.042969 190.914062 349.648438 189.519531 C 349.253906 188.121094 348.796875 186.746094 348.273438 185.390625 C 347.753906 184.035156 347.171875 182.707031 346.527344 181.40625 C 345.882812 180.105469 345.179688 178.835938 344.421875 177.601562 C 343.660156 176.363281 342.847656 175.164062 341.976562 174.003906 C 341.105469 172.839844 340.183594 171.722656 339.210938 170.644531 C 338.238281 169.566406 337.214844 168.539062 336.148438 167.554688 C 335.082031 166.570312 333.96875 165.640625 332.816406 164.757812 C 331.664062 163.878906 330.46875 163.050781 329.242188 162.28125 C 328.011719 161.507812 326.75 160.792969 325.453125 160.140625 C 324.160156 159.484375 322.835938 158.890625 321.488281 158.355469 C 320.136719 157.820312 318.765625 157.351562 317.371094 156.941406 C 315.980469 156.535156 314.570312 156.191406 313.144531 155.914062 C 311.722656 155.636719 310.285156 155.421875 308.84375 155.277344 L 308.84375 67.238281 C 308.84375 40.351562 290.03125 18.472656 266.90625 18.472656 L 60.617188 18.472656 C 40.183594 18.472656 23.5625 37.757812 23.5625 61.457031 L 23.5625 102.074219 C 23.5625 102.390625 23.589844 102.703125 23.652344 103.011719 C 23.714844 103.320312 23.804688 103.617188 23.925781 103.910156 C 24.046875 104.199219 24.191406 104.476562 24.367188 104.738281 C 24.542969 105 24.738281 105.242188 24.960938 105.464844 C 25.183594 105.6875 25.425781 105.882812 25.6875 106.058594 C 25.949219 106.234375 26.226562 106.382812 26.515625 106.5 C 26.804688 106.621094 27.105469 106.714844 27.414062 106.773438 C 27.722656 106.835938 28.035156 106.867188 28.347656 106.867188 L 88.082031 106.910156 L 88.082031 303 C 88.085938 332.527344 108.800781 356.519531 134.257812 356.519531 L 308.535156 356.519531 C 331.660156 356.519531 350.472656 334.640625 350.472656 307.753906 L 350.472656 284.332031 C 350.472656 284.019531 350.441406 283.707031 350.378906 283.398438 C 350.320312 283.085938 350.226562 282.789062 350.105469 282.496094 C 349.984375 282.207031 349.835938 281.929688 349.664062 281.667969 C 349.488281 281.40625 349.289062 281.164062 349.0625 280.941406 C 348.839844 280.71875 348.597656 280.519531 348.335938 280.34375 C 348.074219 280.167969 347.796875 280.023438 347.503906 279.902344 C 347.214844 279.78125 346.914062 279.691406 346.605469 279.632812 C 346.292969 279.570312 345.984375 279.542969 345.667969 279.542969 Z M 341.84375 202.398438 C 341.84375 203.636719 341.78125 204.871094 341.660156 206.105469 C 341.539062 207.335938 341.359375 208.558594 341.117188 209.773438 C 340.875 210.988281 340.574219 212.1875 340.214844 213.371094 C 339.855469 214.558594 339.441406 215.722656 338.964844 216.867188 C 338.492188 218.007812 337.964844 219.128906 337.378906 220.21875 C 336.796875 221.3125 336.160156 222.371094 335.472656 223.402344 C 334.785156 224.429688 334.046875 225.421875 333.261719 226.378906 C 332.476562 227.335938 331.648438 228.253906 330.769531 229.128906 C 329.894531 230.003906 328.980469 230.835938 328.023438 231.621094 C 327.066406 232.40625 326.070312 233.144531 325.042969 233.832031 C 324.011719 234.519531 322.953125 235.15625 321.859375 235.738281 C 320.769531 236.320312 319.652344 236.851562 318.507812 237.324219 C 317.363281 237.796875 316.199219 238.214844 315.015625 238.574219 C 313.828125 238.933594 312.628906 239.234375 311.414062 239.476562 C 310.199219 239.71875 308.976562 239.898438 307.746094 240.019531 C 306.515625 240.140625 305.277344 240.203125 304.039062 240.203125 C 302.800781 240.203125 301.566406 240.140625 300.335938 240.019531 C 299.101562 239.898438 297.878906 239.71875 296.664062 239.476562 C 295.453125 239.234375 294.25 238.933594 293.066406 238.574219 C 291.882812 238.214844 290.71875 237.796875 289.574219 237.324219 C 288.429688 236.851562 287.3125 236.320312 286.21875 235.738281 C 285.128906 235.15625 284.066406 234.519531 283.039062 233.832031 C 282.007812 233.144531 281.015625 232.40625 280.058594 231.621094 C 279.101562 230.835938 278.183594 230.003906 277.308594 229.128906 C 276.433594 228.253906 275.605469 227.335938 274.820312 226.378906 C 274.03125 225.421875 273.296875 224.429688 272.609375 223.402344 C 271.921875 222.371094 271.285156 221.3125 270.703125 220.21875 C 270.117188 219.128906 269.589844 218.007812 269.113281 216.867188 C 268.640625 215.722656 268.226562 214.558594 267.867188 213.371094 C 267.507812 212.1875 267.207031 210.988281 266.964844 209.773438 C 266.722656 208.558594 266.539062 207.335938 266.417969 206.105469 C 266.296875 204.871094 266.238281 203.636719 266.238281 202.398438 C 266.238281 201.160156 266.296875 199.925781 266.417969 198.695312 C 266.539062 197.460938 266.722656 196.238281 266.964844 195.023438 C 267.207031 193.808594 267.507812 192.609375 267.867188 191.425781 C 268.226562 190.242188 268.640625 189.074219 269.113281 187.933594 C 269.589844 186.789062 270.117188 185.671875 270.703125 184.578125 C 271.285156 183.488281 271.921875 182.425781 272.609375 181.398438 C 273.296875 180.367188 274.03125 179.375 274.820312 178.417969 C 275.605469 177.460938 276.433594 176.542969 277.308594 175.667969 C 278.183594 174.792969 279.101562 173.960938 280.058594 173.175781 C 281.015625 172.390625 282.007812 171.65625 283.039062 170.96875 C 284.066406 170.277344 285.128906 169.644531 286.21875 169.058594 C 287.3125 168.476562 288.429688 167.949219 289.574219 167.472656 C 290.71875 167 291.882812 166.582031 293.066406 166.222656 C 294.25 165.863281 295.453125 165.5625 296.664062 165.324219 C 297.878906 165.082031 299.101562 164.898438 300.335938 164.777344 C 301.566406 164.65625 302.800781 164.597656 304.039062 164.597656 C 305.277344 164.597656 306.511719 164.660156 307.746094 164.78125 C 308.976562 164.902344 310.199219 165.085938 311.414062 165.328125 C 312.625 165.570312 313.824219 165.871094 315.011719 166.230469 C 316.195312 166.59375 317.359375 167.007812 318.5 167.484375 C 319.644531 167.957031 320.761719 168.488281 321.851562 169.070312 C 322.945312 169.652344 324.003906 170.289062 325.035156 170.976562 C 326.0625 171.664062 327.054688 172.402344 328.011719 173.1875 C 328.96875 173.972656 329.886719 174.804688 330.761719 175.679688 C 331.636719 176.554688 332.464844 177.46875 333.25 178.425781 C 334.035156 179.382812 334.773438 180.375 335.460938 181.40625 C 336.148438 182.433594 336.785156 183.496094 337.367188 184.585938 C 337.953125 185.675781 338.480469 186.792969 338.957031 187.9375 C 339.429688 189.082031 339.847656 190.246094 340.207031 191.429688 C 340.566406 192.613281 340.867188 193.8125 341.109375 195.027344 C 341.351562 196.238281 341.535156 197.464844 341.65625 198.695312 C 341.78125 199.925781 341.84375 201.160156 341.84375 202.398438 Z M 33.148438 97.273438 L 33.148438 61.457031 C 33.148438 43.039062 45.46875 28.054688 60.617188 28.054688 C 75.460938 28.054688 87.777344 43.050781 88.085938 61.496094 L 88.085938 97.3125 Z M 97.664062 303.007812 L 97.664062 61.382812 C 97.65625 58.671875 97.414062 55.980469 96.945312 53.3125 C 96.476562 50.640625 95.785156 48.027344 94.875 45.476562 C 93.960938 42.921875 92.839844 40.464844 91.507812 38.105469 C 90.175781 35.742188 88.652344 33.507812 86.941406 31.40625 C 85.953125 30.226562 84.898438 29.109375 83.78125 28.054688 L 266.90625 28.054688 C 284.746094 28.054688 299.257812 45.632812 299.257812 67.238281 L 299.257812 155.277344 C 297.21875 155.484375 295.203125 155.828125 293.210938 156.296875 C 291.214844 156.769531 289.261719 157.367188 287.34375 158.089844 C 285.429688 158.8125 283.566406 159.65625 281.761719 160.621094 C 279.953125 161.585938 278.214844 162.664062 276.550781 163.855469 C 274.882812 165.042969 273.296875 166.335938 271.796875 167.730469 C 270.296875 169.125 268.894531 170.613281 267.585938 172.1875 C 266.277344 173.765625 265.078125 175.417969 263.984375 177.152344 C 262.890625 178.882812 261.910156 180.679688 261.050781 182.539062 L 159.871094 182.539062 C 159.554688 182.539062 159.242188 182.570312 158.933594 182.628906 C 158.625 182.691406 158.328125 182.78125 158.035156 182.902344 C 157.746094 183.023438 157.46875 183.171875 157.207031 183.34375 C 156.945312 183.519531 156.703125 183.71875 156.480469 183.941406 C 156.261719 184.164062 156.0625 184.40625 155.886719 184.667969 C 155.710938 184.929688 155.5625 185.203125 155.445312 185.496094 C 155.324219 185.785156 155.234375 186.085938 155.171875 186.394531 C 155.109375 186.703125 155.078125 187.015625 155.078125 187.328125 C 155.078125 187.644531 155.109375 187.953125 155.171875 188.261719 C 155.234375 188.570312 155.324219 188.871094 155.445312 189.160156 C 155.5625 189.453125 155.710938 189.730469 155.886719 189.988281 C 156.0625 190.25 156.261719 190.492188 156.480469 190.714844 C 156.703125 190.9375 156.945312 191.136719 157.207031 191.3125 C 157.46875 191.488281 157.746094 191.632812 158.035156 191.753906 C 158.328125 191.875 158.625 191.964844 158.933594 192.027344 C 159.242188 192.089844 159.554688 192.121094 159.871094 192.121094 L 257.8125 192.121094 C 257.234375 194.710938 256.875 197.332031 256.738281 199.984375 C 256.601562 202.640625 256.6875 205.285156 256.996094 207.921875 C 257.304688 210.558594 257.832031 213.152344 258.582031 215.703125 C 259.328125 218.25 260.285156 220.71875 261.445312 223.105469 L 159.871094 223.105469 C 159.550781 223.097656 159.230469 223.121094 158.917969 223.175781 C 158.601562 223.230469 158.292969 223.316406 157.996094 223.433594 C 157.699219 223.550781 157.414062 223.695312 157.144531 223.867188 C 156.875 224.039062 156.625 224.238281 156.398438 224.460938 C 156.167969 224.683594 155.960938 224.929688 155.78125 225.191406 C 155.601562 225.457031 155.449219 225.738281 155.324219 226.03125 C 155.199219 226.328125 155.105469 226.632812 155.042969 226.945312 C 154.980469 227.257812 154.945312 227.574219 154.945312 227.894531 C 154.945312 228.214844 154.980469 228.53125 155.042969 228.847656 C 155.105469 229.160156 155.199219 229.464844 155.324219 229.757812 C 155.449219 230.054688 155.601562 230.335938 155.78125 230.597656 C 155.960938 230.863281 156.167969 231.105469 156.398438 231.328125 C 156.625 231.554688 156.875 231.75 157.144531 231.925781 C 157.414062 232.097656 157.699219 232.242188 157.996094 232.359375 C 158.292969 232.476562 158.601562 232.5625 158.917969 232.617188 C 159.230469 232.671875 159.550781 232.695312 159.871094 232.683594 L 267.667969 232.683594 C 269.628906 235.046875 271.796875 237.195312 274.179688 239.132812 C 276.558594 241.070312 279.101562 242.761719 281.8125 244.203125 C 284.519531 245.648438 287.339844 246.816406 290.277344 247.710938 C 293.214844 248.605469 296.207031 249.210938 299.261719 249.523438 L 299.261719 279.523438 L 171.632812 279.523438 C 171.316406 279.523438 171.007812 279.554688 170.699219 279.617188 C 170.390625 279.679688 170.089844 279.769531 169.800781 279.890625 C 169.507812 280.011719 169.234375 280.15625 168.972656 280.332031 C 168.710938 280.507812 168.46875 280.707031 168.246094 280.929688 C 168.023438 281.152344 167.828125 281.394531 167.652344 281.652344 C 167.476562 281.914062 167.328125 282.191406 167.210938 282.480469 C 167.089844 282.773438 167 283.070312 166.9375 283.378906 C 166.875 283.6875 166.84375 284 166.84375 284.316406 L 166.84375 307.734375 C 166.84375 329.339844 152.226562 346.917969 134.257812 346.917969 C 114.070312 346.9375 97.664062 327.226562 97.664062 303 Z M 340.886719 307.753906 C 340.886719 329.359375 326.375 346.9375 308.535156 346.9375 L 159.324219 346.9375 C 162.066406 344.472656 164.519531 341.746094 166.675781 338.753906 C 168.832031 335.765625 170.648438 332.578125 172.121094 329.199219 C 173.59375 325.820312 174.695312 322.320312 175.417969 318.707031 C 176.140625 315.089844 176.46875 311.4375 176.410156 307.753906 L 176.410156 289.125 L 340.886719 289.125 Z M 113.238281 75.328125 C 113.238281 75.011719 113.269531 74.699219 113.328125 74.390625 C 113.390625 74.082031 113.480469 73.785156 113.601562 73.492188 C 113.722656 73.203125 113.871094 72.925781 114.046875 72.664062 C 114.21875 72.40625 114.417969 72.164062 114.640625 71.941406 C 114.863281 71.71875 115.105469 71.519531 115.367188 71.34375 C 115.628906 71.171875 115.90625 71.023438 116.195312 70.902344 C 116.484375 70.78125 116.785156 70.691406 117.09375 70.632812 C 117.402344 70.570312 117.714844 70.539062 118.027344 70.539062 L 164.59375 70.539062 C 164.902344 70.546875 165.210938 70.585938 165.511719 70.652344 C 165.8125 70.722656 166.105469 70.816406 166.386719 70.941406 C 166.671875 71.066406 166.9375 71.214844 167.191406 71.390625 C 167.445312 71.566406 167.683594 71.765625 167.898438 71.988281 C 168.113281 72.210938 168.304688 72.449219 168.472656 72.707031 C 168.644531 72.96875 168.785156 73.238281 168.902344 73.527344 C 169.019531 73.8125 169.105469 74.105469 169.164062 74.410156 C 169.222656 74.714844 169.253906 75.019531 169.253906 75.328125 C 169.253906 75.636719 169.222656 75.945312 169.164062 76.246094 C 169.105469 76.550781 169.019531 76.84375 168.902344 77.132812 C 168.785156 77.417969 168.644531 77.691406 168.472656 77.949219 C 168.304688 78.207031 168.113281 78.449219 167.898438 78.667969 C 167.683594 78.890625 167.445312 79.089844 167.191406 79.265625 C 166.9375 79.441406 166.671875 79.589844 166.386719 79.714844 C 166.105469 79.839844 165.8125 79.9375 165.511719 80.003906 C 165.210938 80.070312 164.902344 80.109375 164.59375 80.117188 L 118.027344 80.117188 C 117.714844 80.117188 117.402344 80.085938 117.09375 80.027344 C 116.785156 79.964844 116.484375 79.875 116.195312 79.753906 C 115.90625 79.632812 115.628906 79.484375 115.367188 79.308594 C 115.105469 79.136719 114.863281 78.9375 114.640625 78.714844 C 114.417969 78.492188 114.21875 78.25 114.046875 77.988281 C 113.871094 77.726562 113.722656 77.449219 113.601562 77.160156 C 113.480469 76.871094 113.390625 76.570312 113.328125 76.261719 C 113.269531 75.953125 113.238281 75.640625 113.238281 75.328125 Z M 113.238281 94.84375 C 113.238281 94.527344 113.269531 94.214844 113.332031 93.910156 C 113.390625 93.601562 113.484375 93.300781 113.601562 93.011719 C 113.722656 92.71875 113.871094 92.445312 114.046875 92.183594 C 114.222656 91.921875 114.417969 91.679688 114.640625 91.457031 C 114.863281 91.234375 115.105469 91.035156 115.367188 90.863281 C 115.628906 90.6875 115.90625 90.539062 116.195312 90.417969 C 116.488281 90.300781 116.785156 90.207031 117.09375 90.148438 C 117.402344 90.085938 117.714844 90.054688 118.027344 90.054688 L 211.445312 90.054688 C 211.765625 90.046875 212.082031 90.070312 212.398438 90.125 C 212.714844 90.179688 213.019531 90.265625 213.320312 90.382812 C 213.617188 90.496094 213.902344 90.640625 214.167969 90.816406 C 214.4375 90.988281 214.6875 91.1875 214.917969 91.410156 C 215.148438 91.632812 215.351562 91.878906 215.53125 92.140625 C 215.714844 92.40625 215.867188 92.683594 215.992188 92.980469 C 216.113281 93.273438 216.210938 93.578125 216.273438 93.894531 C 216.335938 94.207031 216.367188 94.523438 216.367188 94.84375 C 216.367188 95.164062 216.335938 95.480469 216.273438 95.796875 C 216.210938 96.109375 216.113281 96.414062 215.992188 96.707031 C 215.867188 97.003906 215.714844 97.28125 215.53125 97.546875 C 215.351562 97.8125 215.148438 98.054688 214.917969 98.277344 C 214.6875 98.5 214.4375 98.699219 214.167969 98.871094 C 213.902344 99.046875 213.617188 99.191406 213.320312 99.308594 C 213.019531 99.421875 212.714844 99.507812 212.398438 99.5625 C 212.082031 99.617188 211.765625 99.640625 211.445312 99.632812 L 118.027344 99.632812 C 117.714844 99.632812 117.402344 99.601562 117.09375 99.542969 C 116.785156 99.480469 116.484375 99.390625 116.195312 99.269531 C 115.90625 99.148438 115.628906 99 115.367188 98.824219 C 115.105469 98.652344 114.863281 98.453125 114.640625 98.230469 C 114.417969 98.007812 114.21875 97.765625 114.046875 97.503906 C 113.871094 97.242188 113.722656 96.964844 113.601562 96.675781 C 113.480469 96.386719 113.390625 96.085938 113.328125 95.777344 C 113.269531 95.46875 113.238281 95.15625 113.238281 94.84375 Z M 113.238281 114.359375 C 113.238281 114.042969 113.269531 113.730469 113.332031 113.425781 C 113.390625 113.117188 113.484375 112.816406 113.601562 112.527344 C 113.722656 112.234375 113.871094 111.960938 114.046875 111.699219 C 114.222656 111.4375 114.417969 111.195312 114.640625 110.972656 C 114.863281 110.75 115.105469 110.550781 115.367188 110.378906 C 115.628906 110.203125 115.90625 110.054688 116.195312 109.933594 C 116.488281 109.816406 116.785156 109.722656 117.09375 109.664062 C 117.402344 109.601562 117.714844 109.570312 118.027344 109.570312 L 239.988281 109.570312 C 240.300781 109.578125 240.605469 109.617188 240.90625 109.683594 C 241.207031 109.753906 241.5 109.847656 241.78125 109.972656 C 242.066406 110.097656 242.335938 110.246094 242.589844 110.421875 C 242.84375 110.597656 243.078125 110.796875 243.292969 111.019531 C 243.507812 111.242188 243.699219 111.480469 243.867188 111.738281 C 244.039062 112 244.179688 112.269531 244.296875 112.558594 C 244.414062 112.84375 244.5 113.136719 244.558594 113.441406 C 244.621094 113.746094 244.648438 114.050781 244.648438 114.359375 C 244.648438 114.667969 244.621094 114.976562 244.558594 115.277344 C 244.5 115.582031 244.414062 115.875 244.296875 116.164062 C 244.179688 116.449219 244.039062 116.722656 243.867188 116.980469 C 243.699219 117.238281 243.507812 117.480469 243.292969 117.699219 C 243.078125 117.921875 242.84375 118.121094 242.589844 118.296875 C 242.335938 118.472656 242.066406 118.625 241.78125 118.746094 C 241.5 118.871094 241.207031 118.96875 240.90625 119.035156 C 240.605469 119.101562 240.300781 119.140625 239.988281 119.148438 L 118.027344 119.148438 C 117.714844 119.148438 117.402344 119.117188 117.09375 119.058594 C 116.785156 118.996094 116.484375 118.90625 116.195312 118.785156 C 115.90625 118.664062 115.628906 118.515625 115.367188 118.339844 C 115.105469 118.167969 114.863281 117.96875 114.640625 117.746094 C 114.417969 117.523438 114.21875 117.28125 114.046875 117.019531 C 113.871094 116.757812 113.722656 116.480469 113.601562 116.191406 C 113.480469 115.902344 113.390625 115.601562 113.328125 115.292969 C 113.269531 114.984375 113.238281 114.671875 113.238281 114.359375 Z M 159.871094 141.988281 L 278.898438 141.988281 C 279.210938 141.988281 279.523438 142.019531 279.832031 142.078125 C 280.140625 142.140625 280.441406 142.230469 280.730469 142.351562 C 281.023438 142.472656 281.296875 142.621094 281.558594 142.792969 C 281.820312 142.96875 282.0625 143.167969 282.285156 143.390625 C 282.507812 143.613281 282.707031 143.855469 282.882812 144.117188 C 283.054688 144.378906 283.203125 144.652344 283.324219 144.945312 C 283.445312 145.234375 283.535156 145.535156 283.597656 145.84375 C 283.65625 146.152344 283.6875 146.464844 283.6875 146.777344 C 283.6875 147.09375 283.65625 147.402344 283.597656 147.710938 C 283.535156 148.019531 283.445312 148.320312 283.324219 148.609375 C 283.203125 148.902344 283.054688 149.179688 282.882812 149.4375 C 282.707031 149.699219 282.507812 149.941406 282.285156 150.164062 C 282.0625 150.386719 281.820312 150.585938 281.558594 150.761719 C 281.296875 150.9375 281.023438 151.082031 280.730469 151.203125 C 280.441406 151.324219 280.140625 151.414062 279.832031 151.476562 C 279.523438 151.539062 279.210938 151.570312 278.898438 151.570312 L 159.871094 151.570312 C 159.554688 151.570312 159.242188 151.539062 158.933594 151.476562 C 158.625 151.414062 158.328125 151.324219 158.035156 151.203125 C 157.746094 151.082031 157.46875 150.9375 157.207031 150.761719 C 156.945312 150.585938 156.703125 150.386719 156.480469 150.164062 C 156.261719 149.941406 156.0625 149.699219 155.886719 149.4375 C 155.710938 149.179688 155.5625 148.902344 155.445312 148.609375 C 155.324219 148.320312 155.234375 148.019531 155.171875 147.710938 C 155.109375 147.402344 155.078125 147.09375 155.078125 146.777344 C 155.078125 146.464844 155.109375 146.152344 155.171875 145.84375 C 155.234375 145.535156 155.324219 145.234375 155.445312 144.945312 C 155.5625 144.652344 155.710938 144.378906 155.886719 144.117188 C 156.0625 143.855469 156.261719 143.613281 156.480469 143.390625 C 156.703125 143.167969 156.945312 142.96875 157.207031 142.792969 C 157.46875 142.621094 157.746094 142.472656 158.035156 142.351562 C 158.328125 142.230469 158.625 142.140625 158.933594 142.078125 C 159.242188 142.019531 159.554688 141.988281 159.871094 141.988281 Z M 128.207031 132.078125 C 127.242188 132.078125 126.285156 132.171875 125.339844 132.363281 C 124.394531 132.550781 123.472656 132.828125 122.582031 133.199219 C 121.691406 133.570312 120.84375 134.023438 120.042969 134.558594 C 119.242188 135.09375 118.5 135.703125 117.816406 136.386719 C 117.132812 137.070312 116.523438 137.8125 115.988281 138.613281 C 115.453125 139.417969 115 140.265625 114.632812 141.15625 C 114.261719 142.046875 113.984375 142.964844 113.796875 143.914062 C 113.609375 144.859375 113.515625 145.816406 113.515625 146.78125 C 113.515625 147.746094 113.609375 148.699219 113.796875 149.648438 C 113.984375 150.59375 114.265625 151.511719 114.632812 152.402344 C 115.003906 153.296875 115.457031 154.140625 115.992188 154.945312 C 116.527344 155.746094 117.136719 156.488281 117.820312 157.171875 C 118.5 157.855469 119.242188 158.464844 120.046875 159 C 120.847656 159.535156 121.695312 159.988281 122.585938 160.359375 C 123.480469 160.726562 124.398438 161.007812 125.34375 161.195312 C 126.289062 161.382812 127.246094 161.476562 128.210938 161.476562 C 129.175781 161.476562 130.132812 161.382812 131.078125 161.195312 C 132.023438 161.007812 132.945312 160.730469 133.835938 160.359375 C 134.726562 159.992188 135.574219 159.539062 136.375 159.003906 C 137.179688 158.464844 137.921875 157.855469 138.605469 157.175781 C 139.285156 156.492188 139.894531 155.75 140.433594 154.949219 C 140.96875 154.148438 141.421875 153.300781 141.792969 152.410156 C 142.160156 151.515625 142.441406 150.597656 142.628906 149.652344 C 142.816406 148.707031 142.914062 147.75 142.914062 146.785156 C 142.914062 145.820312 142.816406 144.863281 142.628906 143.917969 C 142.441406 142.96875 142.160156 142.050781 141.792969 141.160156 C 141.421875 140.269531 140.96875 139.421875 140.433594 138.617188 C 139.898438 137.816406 139.289062 137.074219 138.605469 136.390625 C 137.921875 135.707031 137.179688 135.097656 136.378906 134.5625 C 135.578125 134.023438 134.730469 133.570312 133.839844 133.203125 C 132.945312 132.832031 132.027344 132.550781 131.082031 132.363281 C 130.132812 132.175781 129.179688 132.078125 128.214844 132.078125 Z M 128.207031 151.898438 C 127.871094 151.898438 127.535156 151.867188 127.207031 151.800781 C 126.878906 151.734375 126.558594 151.636719 126.246094 151.507812 C 125.9375 151.378906 125.640625 151.21875 125.363281 151.03125 C 125.082031 150.84375 124.824219 150.632812 124.585938 150.394531 C 124.347656 150.15625 124.136719 149.898438 123.949219 149.617188 C 123.765625 149.335938 123.605469 149.042969 123.480469 148.730469 C 123.351562 148.421875 123.253906 148.101562 123.1875 147.769531 C 123.125 147.441406 123.089844 147.105469 123.09375 146.769531 C 123.09375 146.433594 123.125 146.101562 123.191406 145.769531 C 123.257812 145.441406 123.355469 145.121094 123.484375 144.8125 C 123.613281 144.5 123.773438 144.207031 123.960938 143.925781 C 124.144531 143.648438 124.359375 143.386719 124.597656 143.152344 C 124.835938 142.914062 125.09375 142.703125 125.375 142.515625 C 125.652344 142.328125 125.949219 142.171875 126.261719 142.042969 C 126.570312 141.914062 126.890625 141.816406 127.222656 141.753906 C 127.550781 141.6875 127.882812 141.65625 128.222656 141.65625 C 128.558594 141.65625 128.890625 141.691406 129.21875 141.757812 C 129.550781 141.820312 129.871094 141.917969 130.179688 142.050781 C 130.492188 142.179688 130.785156 142.335938 131.066406 142.523438 C 131.34375 142.710938 131.601562 142.921875 131.839844 143.160156 C 132.078125 143.398438 132.289062 143.660156 132.476562 143.9375 C 132.664062 144.21875 132.820312 144.515625 132.949219 144.824219 C 133.078125 145.136719 133.171875 145.457031 133.238281 145.785156 C 133.304688 146.117188 133.335938 146.449219 133.335938 146.785156 C 133.335938 147.121094 133.300781 147.453125 133.234375 147.78125 C 133.167969 148.113281 133.070312 148.433594 132.941406 148.742188 C 132.8125 149.050781 132.65625 149.347656 132.46875 149.625 C 132.28125 149.90625 132.070312 150.164062 131.832031 150.402344 C 131.59375 150.636719 131.335938 150.851562 131.054688 151.035156 C 130.777344 151.222656 130.480469 151.378906 130.171875 151.507812 C 129.859375 151.636719 129.542969 151.734375 129.210938 151.800781 C 128.882812 151.867188 128.550781 151.898438 128.214844 151.898438 Z M 128.207031 172.648438 C 127.242188 172.648438 126.285156 172.742188 125.339844 172.929688 C 124.390625 173.117188 123.472656 173.398438 122.582031 173.765625 C 121.6875 174.136719 120.84375 174.589844 120.039062 175.125 C 119.238281 175.660156 118.496094 176.269531 117.8125 176.953125 C 117.128906 177.636719 116.519531 178.378906 115.984375 179.179688 C 115.449219 179.984375 114.996094 180.828125 114.625 181.722656 C 114.257812 182.613281 113.976562 183.53125 113.789062 184.480469 C 113.601562 185.425781 113.507812 186.382812 113.507812 187.347656 C 113.507812 188.3125 113.601562 189.269531 113.789062 190.214844 C 113.976562 191.160156 114.257812 192.082031 114.625 192.972656 C 114.996094 193.863281 115.449219 194.710938 115.984375 195.511719 C 116.519531 196.316406 117.128906 197.058594 117.8125 197.742188 C 118.496094 198.421875 119.238281 199.03125 120.039062 199.570312 C 120.84375 200.105469 121.6875 200.558594 122.582031 200.925781 C 123.472656 201.296875 124.390625 201.574219 125.339844 201.765625 C 126.285156 201.953125 127.242188 202.046875 128.207031 202.046875 C 129.171875 202.046875 130.128906 201.953125 131.074219 201.765625 C 132.019531 201.574219 132.941406 201.296875 133.832031 200.925781 C 134.722656 200.558594 135.570312 200.105469 136.371094 199.570312 C 137.175781 199.03125 137.917969 198.421875 138.601562 197.742188 C 139.28125 197.058594 139.890625 196.316406 140.429688 195.511719 C 140.964844 194.710938 141.417969 193.863281 141.785156 192.972656 C 142.15625 192.082031 142.433594 191.160156 142.625 190.214844 C 142.8125 189.269531 142.90625 188.3125 142.90625 187.347656 C 142.90625 186.382812 142.808594 185.425781 142.621094 184.480469 C 142.433594 183.535156 142.152344 182.617188 141.785156 181.726562 C 141.414062 180.835938 140.960938 179.988281 140.425781 179.1875 C 139.890625 178.382812 139.28125 177.640625 138.597656 176.960938 C 137.917969 176.277344 137.175781 175.667969 136.375 175.132812 C 135.570312 174.59375 134.726562 174.140625 133.835938 173.773438 C 132.945312 173.402344 132.023438 173.121094 131.078125 172.933594 C 130.132812 172.742188 129.179688 172.648438 128.214844 172.648438 Z M 128.207031 192.464844 C 127.871094 192.464844 127.535156 192.429688 127.207031 192.363281 C 126.878906 192.300781 126.558594 192.203125 126.246094 192.070312 C 125.9375 191.941406 125.640625 191.785156 125.363281 191.597656 C 125.082031 191.410156 124.824219 191.199219 124.585938 190.960938 C 124.351562 190.722656 124.136719 190.464844 123.953125 190.183594 C 123.765625 189.902344 123.609375 189.609375 123.480469 189.296875 C 123.351562 188.988281 123.253906 188.667969 123.1875 188.335938 C 123.125 188.007812 123.089844 187.671875 123.09375 187.335938 C 123.09375 187 123.125 186.667969 123.191406 186.339844 C 123.257812 186.007812 123.355469 185.6875 123.484375 185.378906 C 123.613281 185.066406 123.769531 184.773438 123.957031 184.492188 C 124.144531 184.214844 124.359375 183.957031 124.597656 183.71875 C 124.832031 183.480469 125.09375 183.269531 125.371094 183.082031 C 125.652344 182.894531 125.949219 182.738281 126.257812 182.609375 C 126.570312 182.480469 126.890625 182.382812 127.21875 182.320312 C 127.550781 182.253906 127.882812 182.222656 128.21875 182.222656 C 128.554688 182.222656 128.886719 182.253906 129.21875 182.320312 C 129.546875 182.386719 129.867188 182.484375 130.175781 182.613281 C 130.488281 182.742188 130.78125 182.898438 131.0625 183.085938 C 131.34375 183.273438 131.601562 183.488281 131.839844 183.726562 C 132.074219 183.960938 132.289062 184.222656 132.472656 184.5 C 132.660156 184.78125 132.816406 185.074219 132.945312 185.386719 C 133.074219 185.699219 133.171875 186.019531 133.238281 186.347656 C 133.304688 186.675781 133.335938 187.011719 133.335938 187.347656 C 133.335938 187.683594 133.300781 188.015625 133.234375 188.34375 C 133.171875 188.675781 133.074219 188.996094 132.945312 189.304688 C 132.816406 189.617188 132.65625 189.910156 132.472656 190.191406 C 132.285156 190.46875 132.070312 190.726562 131.832031 190.964844 C 131.597656 191.203125 131.335938 191.414062 131.058594 191.601562 C 130.777344 191.789062 130.484375 191.945312 130.171875 192.074219 C 129.863281 192.203125 129.542969 192.300781 129.210938 192.367188 C 128.882812 192.433594 128.550781 192.464844 128.214844 192.464844 Z M 128.207031 213.210938 C 127.242188 213.210938 126.285156 213.304688 125.335938 213.496094 C 124.390625 213.683594 123.472656 213.960938 122.578125 214.332031 C 121.6875 214.699219 120.839844 215.152344 120.035156 215.6875 C 119.234375 216.226562 118.492188 216.835938 117.808594 217.515625 C 117.125 218.199219 116.515625 218.941406 115.980469 219.746094 C 115.441406 220.546875 114.988281 221.394531 114.621094 222.285156 C 114.25 223.179688 113.972656 224.097656 113.78125 225.042969 C 113.59375 225.992188 113.5 226.949219 113.5 227.914062 C 113.5 228.878906 113.59375 229.835938 113.78125 230.78125 C 113.96875 231.730469 114.25 232.648438 114.617188 233.539062 C 114.988281 234.433594 115.441406 235.28125 115.976562 236.082031 C 116.511719 236.886719 117.121094 237.628906 117.804688 238.3125 C 118.488281 238.992188 119.230469 239.605469 120.03125 240.140625 C 120.835938 240.675781 121.683594 241.128906 122.574219 241.5 C 123.464844 241.867188 124.386719 242.148438 125.332031 242.335938 C 126.28125 242.523438 127.234375 242.617188 128.203125 242.617188 C 129.167969 242.617188 130.125 242.523438 131.070312 242.335938 C 132.015625 242.148438 132.9375 241.871094 133.828125 241.5 C 134.71875 241.128906 135.566406 240.679688 136.371094 240.140625 C 137.171875 239.605469 137.917969 238.996094 138.597656 238.3125 C 139.28125 237.628906 139.890625 236.886719 140.425781 236.085938 C 140.964844 235.28125 141.417969 234.433594 141.785156 233.542969 C 142.15625 232.652344 142.433594 231.730469 142.625 230.785156 C 142.8125 229.835938 142.90625 228.882812 142.90625 227.914062 C 142.90625 226.949219 142.808594 225.996094 142.621094 225.050781 C 142.433594 224.105469 142.152344 223.183594 141.785156 222.292969 C 141.414062 221.402344 140.960938 220.554688 140.425781 219.753906 C 139.890625 218.953125 139.28125 218.210938 138.597656 217.527344 C 137.917969 216.84375 137.175781 216.234375 136.375 215.699219 C 135.570312 215.164062 134.726562 214.707031 133.835938 214.339844 C 132.945312 213.96875 132.023438 213.6875 131.078125 213.5 C 130.132812 213.308594 129.179688 213.214844 128.214844 213.210938 Z M 128.207031 233.035156 C 127.871094 233.035156 127.535156 233 127.207031 232.933594 C 126.878906 232.867188 126.558594 232.769531 126.246094 232.640625 C 125.9375 232.511719 125.640625 232.355469 125.363281 232.167969 C 125.082031 231.980469 124.824219 231.765625 124.585938 231.527344 C 124.351562 231.289062 124.136719 231.03125 123.953125 230.753906 C 123.765625 230.472656 123.609375 230.175781 123.480469 229.867188 C 123.351562 229.554688 123.253906 229.234375 123.1875 228.90625 C 123.125 228.574219 123.089844 228.242188 123.09375 227.90625 C 123.09375 227.570312 123.125 227.238281 123.191406 226.90625 C 123.257812 226.578125 123.355469 226.257812 123.484375 225.945312 C 123.613281 225.636719 123.769531 225.339844 123.957031 225.0625 C 124.144531 224.78125 124.359375 224.523438 124.597656 224.285156 C 124.832031 224.050781 125.09375 223.835938 125.371094 223.652344 C 125.652344 223.464844 125.949219 223.308594 126.257812 223.179688 C 126.570312 223.050781 126.890625 222.953125 127.21875 222.886719 C 127.550781 222.824219 127.882812 222.789062 128.21875 222.789062 C 128.554688 222.789062 128.886719 222.824219 129.21875 222.890625 C 129.546875 222.957031 129.867188 223.054688 130.175781 223.183594 C 130.488281 223.3125 130.78125 223.46875 131.0625 223.65625 C 131.34375 223.84375 131.601562 224.054688 131.839844 224.292969 C 132.074219 224.53125 132.289062 224.789062 132.472656 225.070312 C 132.660156 225.351562 132.816406 225.644531 132.945312 225.957031 C 133.074219 226.265625 133.171875 226.585938 133.238281 226.917969 C 133.304688 227.246094 133.335938 227.578125 133.335938 227.914062 C 133.335938 228.25 133.300781 228.585938 133.234375 228.914062 C 133.171875 229.242188 133.074219 229.5625 132.945312 229.875 C 132.816406 230.183594 132.65625 230.480469 132.472656 230.757812 C 132.285156 231.039062 132.070312 231.296875 131.832031 231.535156 C 131.597656 231.773438 131.335938 231.984375 131.058594 232.171875 C 130.777344 232.359375 130.484375 232.515625 130.171875 232.644531 C 129.863281 232.773438 129.542969 232.871094 129.210938 232.933594 C 128.882812 233 128.550781 233.035156 128.214844 233.035156 Z M 155.078125 268.480469 C 155.078125 268.167969 155.109375 267.855469 155.171875 267.546875 C 155.234375 267.238281 155.324219 266.9375 155.445312 266.648438 C 155.5625 266.355469 155.710938 266.082031 155.886719 265.820312 C 156.0625 265.558594 156.261719 265.316406 156.480469 265.09375 C 156.703125 264.871094 156.945312 264.671875 157.207031 264.496094 C 157.46875 264.324219 157.746094 264.175781 158.035156 264.054688 C 158.328125 263.933594 158.625 263.84375 158.933594 263.78125 C 159.242188 263.722656 159.554688 263.691406 159.871094 263.691406 L 278.898438 263.691406 C 279.210938 263.691406 279.523438 263.722656 279.832031 263.78125 C 280.140625 263.84375 280.441406 263.933594 280.730469 264.054688 C 281.023438 264.175781 281.296875 264.324219 281.558594 264.496094 C 281.820312 264.671875 282.0625 264.871094 282.285156 265.09375 C 282.507812 265.316406 282.707031 265.558594 282.882812 265.820312 C 283.054688 266.082031 283.203125 266.355469 283.324219 266.648438 C 283.445312 266.9375 283.535156 267.238281 283.597656 267.546875 C 283.65625 267.855469 283.6875 268.167969 283.6875 268.480469 C 283.6875 268.796875 283.65625 269.105469 283.597656 269.414062 C 283.535156 269.722656 283.445312 270.023438 283.324219 270.316406 C 283.203125 270.605469 283.054688 270.882812 282.882812 271.144531 C 282.707031 271.40625 282.507812 271.644531 282.285156 271.867188 C 282.0625 272.089844 281.820312 272.289062 281.558594 272.464844 C 281.296875 272.640625 281.023438 272.785156 280.730469 272.90625 C 280.441406 273.027344 280.140625 273.117188 279.832031 273.179688 C 279.523438 273.242188 279.210938 273.273438 278.898438 273.273438 L 159.871094 273.273438 C 159.554688 273.273438 159.246094 273.242188 158.9375 273.179688 C 158.628906 273.117188 158.328125 273.027344 158.039062 272.90625 C 157.75 272.785156 157.472656 272.636719 157.210938 272.460938 C 156.949219 272.289062 156.707031 272.089844 156.488281 271.867188 C 156.265625 271.644531 156.066406 271.402344 155.890625 271.140625 C 155.71875 270.878906 155.570312 270.601562 155.449219 270.3125 C 155.332031 270.023438 155.238281 269.722656 155.179688 269.414062 C 155.117188 269.105469 155.085938 268.796875 155.085938 268.480469 Z M 128.207031 253.78125 C 127.242188 253.78125 126.285156 253.875 125.339844 254.0625 C 124.390625 254.253906 123.472656 254.53125 122.582031 254.902344 C 121.6875 255.269531 120.84375 255.722656 120.039062 256.257812 C 119.238281 256.796875 118.496094 257.40625 117.8125 258.085938 C 117.128906 258.769531 116.519531 259.511719 115.984375 260.316406 C 115.449219 261.117188 114.996094 261.964844 114.625 262.855469 C 114.257812 263.746094 113.976562 264.667969 113.789062 265.613281 C 113.601562 266.558594 113.507812 267.515625 113.507812 268.480469 C 113.507812 269.445312 113.601562 270.402344 113.789062 271.347656 C 113.976562 272.296875 114.257812 273.214844 114.625 274.105469 C 114.996094 275 115.449219 275.84375 115.984375 276.648438 C 116.519531 277.449219 117.128906 278.191406 117.8125 278.875 C 118.496094 279.558594 119.238281 280.167969 120.039062 280.703125 C 120.84375 281.238281 121.6875 281.691406 122.582031 282.0625 C 123.472656 282.429688 124.390625 282.710938 125.339844 282.898438 C 126.285156 283.085938 127.242188 283.179688 128.207031 283.179688 C 129.171875 283.179688 130.128906 283.085938 131.074219 282.898438 C 132.019531 282.710938 132.941406 282.429688 133.832031 282.0625 C 134.722656 281.691406 135.570312 281.238281 136.371094 280.703125 C 137.175781 280.167969 137.917969 279.558594 138.601562 278.875 C 139.28125 278.191406 139.890625 277.449219 140.429688 276.648438 C 140.964844 275.84375 141.417969 275 141.785156 274.105469 C 142.15625 273.214844 142.433594 272.296875 142.625 271.347656 C 142.8125 270.402344 142.90625 269.445312 142.90625 268.480469 C 142.90625 267.515625 142.808594 266.5625 142.621094 265.617188 C 142.433594 264.667969 142.152344 263.75 141.785156 262.859375 C 141.414062 261.96875 140.960938 261.121094 140.425781 260.320312 C 139.890625 259.519531 139.28125 258.777344 138.597656 258.09375 C 137.917969 257.410156 137.175781 256.800781 136.375 256.265625 C 135.570312 255.730469 134.726562 255.277344 133.835938 254.90625 C 132.945312 254.535156 132.023438 254.257812 131.078125 254.066406 C 130.132812 253.878906 129.179688 253.78125 128.214844 253.78125 Z M 128.207031 273.601562 C 127.871094 273.601562 127.539062 273.570312 127.207031 273.503906 C 126.878906 273.4375 126.558594 273.339844 126.246094 273.210938 C 125.9375 273.082031 125.640625 272.921875 125.363281 272.734375 C 125.082031 272.550781 124.824219 272.335938 124.585938 272.097656 C 124.351562 271.859375 124.136719 271.601562 123.953125 271.320312 C 123.765625 271.042969 123.609375 270.746094 123.480469 270.4375 C 123.351562 270.125 123.253906 269.804688 123.1875 269.476562 C 123.125 269.144531 123.089844 268.8125 123.09375 268.476562 C 123.09375 268.140625 123.125 267.808594 123.191406 267.476562 C 123.257812 267.148438 123.355469 266.828125 123.484375 266.515625 C 123.613281 266.207031 123.769531 265.910156 123.957031 265.632812 C 124.144531 265.351562 124.355469 265.09375 124.59375 264.855469 C 124.832031 264.621094 125.089844 264.40625 125.371094 264.222656 C 125.652344 264.035156 125.945312 263.875 126.257812 263.75 C 126.566406 263.621094 126.886719 263.523438 127.21875 263.457031 C 127.546875 263.390625 127.878906 263.359375 128.214844 263.359375 C 128.550781 263.359375 128.886719 263.394531 129.214844 263.457031 C 129.542969 263.523438 129.863281 263.621094 130.175781 263.75 C 130.484375 263.878906 130.78125 264.035156 131.058594 264.222656 C 131.339844 264.410156 131.597656 264.621094 131.835938 264.859375 C 132.074219 265.097656 132.285156 265.355469 132.472656 265.636719 C 132.660156 265.917969 132.816406 266.210938 132.945312 266.523438 C 133.074219 266.832031 133.171875 267.152344 133.238281 267.480469 C 133.300781 267.8125 133.335938 268.144531 133.335938 268.480469 C 133.335938 268.816406 133.300781 269.148438 133.234375 269.480469 C 133.171875 269.808594 133.074219 270.128906 132.945312 270.441406 C 132.816406 270.75 132.65625 271.046875 132.472656 271.324219 C 132.285156 271.605469 132.070312 271.863281 131.832031 272.101562 C 131.597656 272.339844 131.335938 272.550781 131.058594 272.738281 C 130.777344 272.925781 130.484375 273.082031 130.171875 273.210938 C 129.863281 273.339844 129.542969 273.4375 129.210938 273.503906 C 128.882812 273.570312 128.550781 273.601562 128.214844 273.601562 Z M 297.6875 209 L 320.894531 185.652344 C 321.117188 185.429688 321.359375 185.230469 321.621094 185.058594 C 321.878906 184.882812 322.15625 184.734375 322.445312 184.613281 C 322.738281 184.492188 323.035156 184.402344 323.34375 184.339844 C 323.652344 184.277344 323.960938 184.246094 324.277344 184.246094 C 324.589844 184.246094 324.902344 184.273438 325.210938 184.335938 C 325.519531 184.394531 325.816406 184.484375 326.109375 184.605469 C 326.398438 184.722656 326.675781 184.871094 326.9375 185.042969 C 327.199219 185.21875 327.441406 185.417969 327.664062 185.636719 C 327.886719 185.859375 328.085938 186.101562 328.261719 186.359375 C 328.4375 186.621094 328.585938 186.898438 328.707031 187.1875 C 328.828125 187.476562 328.921875 187.773438 328.984375 188.082031 C 329.046875 188.390625 329.078125 188.703125 329.078125 189.015625 C 329.078125 189.332031 329.050781 189.640625 328.992188 189.949219 C 328.929688 190.257812 328.839844 190.558594 328.722656 190.847656 C 328.605469 191.140625 328.457031 191.417969 328.285156 191.679688 C 328.109375 191.941406 327.914062 192.183594 327.691406 192.40625 L 301.101562 219.160156 C 300.65625 219.613281 300.136719 219.960938 299.550781 220.207031 C 298.960938 220.449219 298.347656 220.574219 297.710938 220.574219 C 297.078125 220.574219 296.46875 220.453125 295.878906 220.207031 C 295.292969 219.964844 294.777344 219.621094 294.328125 219.171875 L 280.433594 205.308594 C 280.210938 205.085938 280.011719 204.84375 279.835938 204.582031 C 279.664062 204.320312 279.515625 204.042969 279.394531 203.753906 C 279.273438 203.460938 279.183594 203.164062 279.121094 202.855469 C 279.0625 202.546875 279.03125 202.234375 279.03125 201.917969 C 279.03125 201.605469 279.0625 201.292969 279.125 200.984375 C 279.183594 200.675781 279.277344 200.378906 279.394531 200.085938 C 279.515625 199.796875 279.664062 199.519531 279.839844 199.257812 C 280.011719 199 280.210938 198.757812 280.433594 198.535156 C 280.65625 198.3125 280.898438 198.113281 281.160156 197.9375 C 281.421875 197.765625 281.699219 197.617188 281.988281 197.496094 C 282.277344 197.375 282.578125 197.285156 282.886719 197.222656 C 283.195312 197.160156 283.507812 197.128906 283.820312 197.128906 C 284.136719 197.128906 284.445312 197.160156 284.753906 197.222656 C 285.0625 197.285156 285.363281 197.375 285.652344 197.496094 C 285.945312 197.613281 286.21875 197.761719 286.480469 197.9375 C 286.742188 198.109375 286.984375 198.308594 287.207031 198.53125 Z M 297.6875 209 " fill-opacity="1" fill-rule="nonzero"/></g></svg>