<svg xmlns="http://www.w3.org/2000/svg" xmlns:xlink="http://www.w3.org/1999/xlink" width="500" zoomAndPan="magnify" viewBox="0 0 375 374.999991" height="500" preserveAspectRatio="xMidYMid meet" version="1.0"><defs><clipPath id="b82a005ba7"><path d="M 71.789062 63.066406 L 303.539062 63.066406 L 303.539062 302 L 71.789062 302 Z M 71.789062 63.066406 " clip-rule="nonzero"/></clipPath></defs><g clip-path="url(#b82a005ba7)"><path fill="#0977ca" d="M 299.144531 247.632812 L 273.148438 247.632812 L 273.148438 226.457031 C 274.167969 226.355469 275.183594 226.203125 276.1875 226.007812 C 277.191406 225.8125 278.1875 225.570312 279.171875 225.28125 C 280.15625 224.992188 281.121094 224.660156 282.074219 224.285156 C 283.027344 223.90625 283.960938 223.488281 284.875 223.023438 C 285.789062 222.5625 286.679688 222.058594 287.546875 221.515625 C 288.417969 220.96875 289.257812 220.386719 290.070312 219.765625 C 290.886719 219.140625 291.671875 218.484375 292.425781 217.789062 C 293.179688 217.097656 293.898438 216.371094 294.585938 215.609375 C 295.273438 214.847656 295.921875 214.058594 296.539062 213.238281 C 297.152344 212.417969 297.726562 211.574219 298.261719 210.699219 C 298.800781 209.828125 299.296875 208.929688 299.75 208.011719 C 300.203125 207.09375 300.613281 206.15625 300.984375 205.199219 C 301.351562 204.246094 301.675781 203.273438 301.953125 202.289062 C 302.230469 201.300781 302.464844 200.304688 302.652344 199.296875 C 302.839844 198.289062 302.980469 197.277344 303.074219 196.257812 C 303.167969 195.238281 303.214844 194.214844 303.214844 193.191406 C 303.214844 192.164062 303.167969 191.140625 303.074219 190.121094 C 302.980469 189.101562 302.839844 188.089844 302.652344 187.082031 C 302.464844 186.074219 302.230469 185.078125 301.953125 184.089844 C 301.675781 183.105469 301.351562 182.132812 300.984375 181.179688 C 300.613281 180.222656 300.203125 179.285156 299.75 178.367188 C 299.296875 177.449219 298.800781 176.550781 298.261719 175.679688 C 297.726562 174.804688 297.152344 173.960938 296.539062 173.140625 C 295.921875 172.320312 295.273438 171.53125 294.585938 170.769531 C 293.898438 170.007812 293.179688 169.28125 292.425781 168.589844 C 291.671875 167.894531 290.886719 167.238281 290.070312 166.613281 C 289.257812 165.992188 288.417969 165.410156 287.546875 164.863281 C 286.679688 164.320312 285.789062 163.816406 284.875 163.355469 C 283.960938 162.890625 283.027344 162.472656 282.074219 162.09375 C 281.121094 161.71875 280.15625 161.386719 279.171875 161.097656 C 278.1875 160.808594 277.191406 160.566406 276.1875 160.371094 C 275.183594 160.175781 274.167969 160.023438 273.148438 159.921875 L 273.148438 97.78125 C 273.148438 78.804688 259.875 63.359375 243.550781 63.359375 L 97.941406 63.359375 C 83.519531 63.359375 71.789062 76.972656 71.789062 93.699219 L 71.789062 122.371094 C 71.789062 122.820312 71.871094 123.25 72.042969 123.664062 C 72.214844 124.078125 72.460938 124.445312 72.777344 124.761719 C 73.09375 125.078125 73.457031 125.324219 73.871094 125.496094 C 74.289062 125.667969 74.71875 125.753906 75.167969 125.753906 L 117.328125 125.785156 L 117.328125 264.191406 C 117.332031 285.035156 131.953125 301.964844 149.921875 301.964844 L 272.933594 301.964844 C 289.253906 301.964844 302.535156 286.523438 302.535156 267.546875 L 302.535156 251.015625 C 302.535156 250.566406 302.449219 250.132812 302.277344 249.71875 C 302.105469 249.304688 301.859375 248.9375 301.539062 248.621094 C 301.222656 248.304688 300.855469 248.058594 300.441406 247.886719 C 300.023438 247.71875 299.59375 247.632812 299.144531 247.632812 Z M 296.445312 193.183594 C 296.445312 194.058594 296.402344 194.929688 296.316406 195.796875 C 296.230469 196.667969 296.101562 197.53125 295.929688 198.386719 C 295.761719 199.246094 295.546875 200.09375 295.296875 200.929688 C 295.042969 201.765625 294.746094 202.585938 294.414062 203.394531 C 294.078125 204.203125 293.707031 204.992188 293.292969 205.761719 C 292.882812 206.53125 292.433594 207.28125 291.945312 208.007812 C 291.460938 208.734375 290.941406 209.433594 290.386719 210.109375 C 289.832031 210.785156 289.246094 211.433594 288.628906 212.050781 C 288.011719 212.667969 287.363281 213.253906 286.6875 213.808594 C 286.011719 214.363281 285.3125 214.882812 284.585938 215.367188 C 283.859375 215.855469 283.109375 216.304688 282.339844 216.714844 C 281.570312 217.128906 280.78125 217.5 279.972656 217.835938 C 279.164062 218.167969 278.34375 218.464844 277.507812 218.71875 C 276.671875 218.96875 275.824219 219.183594 274.964844 219.351562 C 274.109375 219.523438 273.246094 219.652344 272.375 219.738281 C 271.507812 219.824219 270.636719 219.867188 269.761719 219.867188 C 268.886719 219.867188 268.015625 219.824219 267.144531 219.738281 C 266.277344 219.652344 265.414062 219.523438 264.554688 219.351562 C 263.699219 219.183594 262.851562 218.96875 262.015625 218.71875 C 261.179688 218.464844 260.355469 218.167969 259.550781 217.835938 C 258.742188 217.5 257.953125 217.128906 257.183594 216.714844 C 256.414062 216.304688 255.664062 215.855469 254.9375 215.367188 C 254.210938 214.882812 253.507812 214.363281 252.832031 213.808594 C 252.160156 213.253906 251.511719 212.667969 250.894531 212.050781 C 250.277344 211.433594 249.691406 210.785156 249.136719 210.109375 C 248.582031 209.433594 248.0625 208.734375 247.574219 208.007812 C 247.089844 207.28125 246.640625 206.53125 246.230469 205.761719 C 245.816406 204.992188 245.445312 204.203125 245.109375 203.394531 C 244.773438 202.585938 244.480469 201.765625 244.226562 200.929688 C 243.972656 200.09375 243.761719 199.246094 243.589844 198.386719 C 243.421875 197.53125 243.292969 196.667969 243.207031 195.796875 C 243.121094 194.929688 243.078125 194.058594 243.078125 193.183594 C 243.078125 192.308594 243.121094 191.4375 243.207031 190.566406 C 243.292969 189.699219 243.421875 188.835938 243.589844 187.976562 C 243.761719 187.121094 243.972656 186.273438 244.226562 185.4375 C 244.480469 184.601562 244.773438 183.78125 245.109375 182.972656 C 245.445312 182.164062 245.816406 181.375 246.230469 180.605469 C 246.640625 179.835938 247.089844 179.085938 247.574219 178.359375 C 248.0625 177.632812 248.582031 176.929688 249.136719 176.253906 C 249.691406 175.582031 250.277344 174.933594 250.894531 174.316406 C 251.511719 173.699219 252.160156 173.113281 252.832031 172.558594 C 253.507812 172.003906 254.210938 171.484375 254.9375 170.996094 C 255.664062 170.511719 256.414062 170.0625 257.183594 169.652344 C 257.953125 169.238281 258.742188 168.867188 259.550781 168.53125 C 260.359375 168.195312 261.179688 167.902344 262.015625 167.648438 C 262.851562 167.394531 263.699219 167.183594 264.554688 167.011719 C 265.414062 166.84375 266.277344 166.714844 267.144531 166.628906 C 268.015625 166.542969 268.886719 166.5 269.761719 166.5 C 270.636719 166.5 271.507812 166.542969 272.375 166.632812 C 273.246094 166.71875 274.109375 166.847656 274.964844 167.015625 C 275.820312 167.1875 276.667969 167.402344 277.503906 167.65625 C 278.339844 167.910156 279.160156 168.203125 279.96875 168.539062 C 280.773438 168.871094 281.5625 169.246094 282.335938 169.660156 C 283.105469 170.070312 283.851562 170.519531 284.578125 171.003906 C 285.304688 171.492188 286.007812 172.011719 286.679688 172.566406 C 287.355469 173.121094 288.003906 173.707031 288.621094 174.324219 C 289.238281 174.941406 289.824219 175.585938 290.378906 176.261719 C 290.933594 176.9375 291.453125 177.636719 291.9375 178.363281 C 292.425781 179.089844 292.875 179.839844 293.285156 180.609375 C 293.699219 181.378906 294.070312 182.167969 294.40625 182.976562 C 294.742188 183.78125 295.035156 184.605469 295.289062 185.441406 C 295.542969 186.277344 295.757812 187.121094 295.925781 187.980469 C 296.097656 188.835938 296.226562 189.699219 296.3125 190.570312 C 296.398438 191.4375 296.441406 192.308594 296.445312 193.183594 Z M 78.554688 118.980469 L 78.554688 93.699219 C 78.554688 80.699219 87.25 70.125 97.941406 70.125 C 108.421875 70.125 117.113281 80.710938 117.332031 93.726562 L 117.332031 119.011719 Z M 124.09375 264.199219 L 124.09375 93.648438 C 124.078125 89.792969 123.421875 86.050781 122.121094 82.421875 C 120.824219 78.789062 118.957031 75.480469 116.523438 72.488281 C 115.828125 71.65625 115.082031 70.871094 114.292969 70.125 L 243.550781 70.125 C 256.144531 70.125 266.382812 82.53125 266.382812 97.78125 L 266.382812 159.921875 C 264.945312 160.070312 263.523438 160.308594 262.117188 160.644531 C 260.710938 160.976562 259.328125 161.398438 257.976562 161.90625 C 256.625 162.417969 255.308594 163.015625 254.035156 163.695312 C 252.757812 164.375 251.535156 165.136719 250.355469 165.976562 C 249.179688 166.816406 248.0625 167.730469 247.003906 168.714844 C 245.945312 169.699219 244.953125 170.746094 244.03125 171.859375 C 243.105469 172.972656 242.257812 174.140625 241.488281 175.363281 C 240.714844 176.585938 240.023438 177.851562 239.417969 179.164062 L 168 179.164062 C 167.550781 179.164062 167.121094 179.25 166.707031 179.421875 C 166.292969 179.59375 165.925781 179.835938 165.609375 180.15625 C 165.292969 180.472656 165.046875 180.835938 164.875 181.25 C 164.703125 181.667969 164.617188 182.097656 164.617188 182.546875 C 164.617188 182.996094 164.703125 183.425781 164.875 183.839844 C 165.046875 184.253906 165.292969 184.621094 165.609375 184.9375 C 165.925781 185.253906 166.292969 185.5 166.707031 185.671875 C 167.121094 185.839844 167.550781 185.925781 168 185.925781 L 237.132812 185.925781 C 236.308594 189.613281 236.117188 193.332031 236.554688 197.082031 C 236.996094 200.832031 238.042969 204.40625 239.695312 207.800781 L 168 207.800781 C 167.542969 207.785156 167.101562 207.863281 166.675781 208.03125 C 166.253906 208.195312 165.875 208.4375 165.546875 208.757812 C 165.222656 209.074219 164.96875 209.445312 164.792969 209.863281 C 164.613281 210.285156 164.523438 210.722656 164.523438 211.179688 C 164.523438 211.636719 164.613281 212.074219 164.792969 212.496094 C 164.96875 212.914062 165.222656 213.285156 165.546875 213.605469 C 165.875 213.921875 166.253906 214.164062 166.675781 214.328125 C 167.101562 214.496094 167.542969 214.574219 168 214.558594 L 244.085938 214.558594 C 245.472656 216.226562 247.003906 217.742188 248.683594 219.109375 C 250.363281 220.480469 252.160156 221.671875 254.070312 222.691406 C 255.980469 223.710938 257.972656 224.535156 260.046875 225.167969 C 262.117188 225.796875 264.230469 226.222656 266.386719 226.445312 L 266.386719 247.621094 L 176.300781 247.621094 C 175.855469 247.621094 175.421875 247.707031 175.007812 247.878906 C 174.59375 248.050781 174.230469 248.296875 173.914062 248.613281 C 173.597656 248.929688 173.351562 249.296875 173.179688 249.710938 C 173.007812 250.125 172.921875 250.554688 172.921875 251.003906 L 172.921875 267.53125 C 172.921875 282.785156 162.605469 295.191406 149.921875 295.191406 C 135.671875 295.203125 124.09375 281.292969 124.09375 264.191406 Z M 295.769531 267.546875 C 295.769531 282.796875 285.523438 295.203125 272.933594 295.203125 L 167.613281 295.203125 C 169.550781 293.464844 171.28125 291.539062 172.804688 289.429688 C 174.324219 287.316406 175.609375 285.070312 176.648438 282.683594 C 177.6875 280.296875 178.464844 277.828125 178.972656 275.277344 C 179.484375 272.726562 179.714844 270.148438 179.671875 267.546875 L 179.671875 254.398438 L 295.769531 254.398438 Z M 135.085938 103.492188 C 135.085938 103.042969 135.171875 102.609375 135.34375 102.195312 C 135.515625 101.78125 135.757812 101.417969 136.074219 101.101562 C 136.394531 100.785156 136.757812 100.539062 137.171875 100.367188 C 137.585938 100.195312 138.019531 100.109375 138.464844 100.113281 L 171.335938 100.113281 C 171.773438 100.125 172.195312 100.21875 172.601562 100.394531 C 173.003906 100.570312 173.359375 100.816406 173.664062 101.132812 C 173.972656 101.449219 174.210938 101.8125 174.375 102.21875 C 174.539062 102.628906 174.625 103.050781 174.625 103.492188 C 174.625 103.933594 174.539062 104.355469 174.375 104.765625 C 174.210938 105.171875 173.972656 105.535156 173.664062 105.851562 C 173.359375 106.164062 173.003906 106.410156 172.601562 106.589844 C 172.195312 106.765625 171.773438 106.859375 171.335938 106.871094 L 138.464844 106.871094 C 138.019531 106.871094 137.585938 106.785156 137.171875 106.613281 C 136.757812 106.441406 136.390625 106.199219 136.074219 105.882812 C 135.757812 105.5625 135.515625 105.199219 135.34375 104.785156 C 135.171875 104.371094 135.085938 103.9375 135.085938 103.492188 Z M 135.085938 117.265625 C 135.085938 116.816406 135.171875 116.386719 135.34375 115.972656 C 135.515625 115.558594 135.757812 115.191406 136.078125 114.875 C 136.394531 114.558594 136.757812 114.316406 137.171875 114.144531 C 137.585938 113.972656 138.019531 113.886719 138.464844 113.886719 L 204.402344 113.886719 C 204.859375 113.875 205.300781 113.949219 205.726562 114.117188 C 206.152344 114.28125 206.527344 114.523438 206.855469 114.84375 C 207.183594 115.160156 207.433594 115.53125 207.613281 115.949219 C 207.789062 116.371094 207.878906 116.808594 207.878906 117.265625 C 207.878906 117.722656 207.789062 118.160156 207.613281 118.582031 C 207.433594 119.003906 207.183594 119.371094 206.855469 119.691406 C 206.527344 120.007812 206.152344 120.25 205.726562 120.417969 C 205.300781 120.582031 204.859375 120.660156 204.402344 120.648438 L 138.464844 120.648438 C 138.019531 120.648438 137.585938 120.5625 137.171875 120.390625 C 136.757812 120.21875 136.390625 119.972656 136.074219 119.65625 C 135.757812 119.339844 135.515625 118.972656 135.34375 118.558594 C 135.171875 118.144531 135.085938 117.714844 135.085938 117.265625 Z M 135.085938 131.039062 C 135.085938 130.59375 135.171875 130.160156 135.34375 129.746094 C 135.515625 129.332031 135.757812 128.96875 136.078125 128.652344 C 136.394531 128.335938 136.757812 128.089844 137.171875 127.917969 C 137.585938 127.746094 138.019531 127.660156 138.464844 127.660156 L 224.550781 127.660156 C 224.992188 127.671875 225.414062 127.769531 225.816406 127.945312 C 226.21875 128.121094 226.574219 128.367188 226.882812 128.683594 C 227.191406 129 227.425781 129.359375 227.589844 129.769531 C 227.757812 130.175781 227.839844 130.601562 227.839844 131.042969 C 227.839844 131.480469 227.757812 131.90625 227.589844 132.3125 C 227.425781 132.722656 227.191406 133.082031 226.882812 133.398438 C 226.574219 133.714844 226.21875 133.960938 225.816406 134.136719 C 225.414062 134.316406 224.992188 134.410156 224.550781 134.421875 L 138.464844 134.421875 C 138.019531 134.421875 137.585938 134.335938 137.171875 134.164062 C 136.757812 133.992188 136.390625 133.75 136.074219 133.429688 C 135.757812 133.113281 135.515625 132.75 135.34375 132.335938 C 135.171875 131.921875 135.085938 131.488281 135.085938 131.039062 Z M 168 150.542969 L 252.015625 150.542969 C 252.464844 150.542969 252.894531 150.628906 253.308594 150.800781 C 253.722656 150.972656 254.089844 151.214844 254.40625 151.53125 C 254.722656 151.847656 254.96875 152.214844 255.136719 152.628906 C 255.308594 153.042969 255.394531 153.476562 255.394531 153.921875 C 255.394531 154.371094 255.308594 154.804688 255.136719 155.21875 C 254.96875 155.632812 254.722656 155.996094 254.40625 156.316406 C 254.089844 156.632812 253.722656 156.875 253.308594 157.046875 C 252.894531 157.21875 252.464844 157.304688 252.015625 157.304688 L 168 157.304688 C 167.550781 157.304688 167.121094 157.21875 166.707031 157.046875 C 166.292969 156.875 165.925781 156.632812 165.609375 156.316406 C 165.292969 155.996094 165.046875 155.632812 164.875 155.21875 C 164.703125 154.804688 164.617188 154.371094 164.617188 153.921875 C 164.617188 153.476562 164.703125 153.042969 164.875 152.628906 C 165.046875 152.214844 165.292969 151.847656 165.609375 151.53125 C 165.925781 151.214844 166.292969 150.972656 166.707031 150.800781 C 167.121094 150.628906 167.550781 150.542969 168 150.542969 Z M 145.648438 143.546875 C 144.96875 143.546875 144.292969 143.613281 143.625 143.75 C 142.957031 143.882812 142.308594 144.078125 141.679688 144.339844 C 141.050781 144.601562 140.453125 144.921875 139.886719 145.296875 C 139.320312 145.675781 138.796875 146.109375 138.316406 146.589844 C 137.835938 147.070312 137.40625 147.59375 137.027344 148.160156 C 136.648438 148.726562 136.328125 149.324219 136.070312 149.957031 C 135.808594 150.585938 135.613281 151.234375 135.480469 151.902344 C 135.347656 152.570312 135.28125 153.242188 135.28125 153.925781 C 135.28125 154.605469 135.347656 155.28125 135.480469 155.949219 C 135.613281 156.617188 135.808594 157.265625 136.070312 157.894531 C 136.332031 158.523438 136.648438 159.121094 137.027344 159.6875 C 137.40625 160.253906 137.835938 160.777344 138.320312 161.261719 C 138.800781 161.742188 139.324219 162.171875 139.890625 162.550781 C 140.457031 162.929688 141.054688 163.25 141.683594 163.507812 C 142.3125 163.769531 142.960938 163.964844 143.628906 164.097656 C 144.296875 164.230469 144.972656 164.296875 145.652344 164.300781 C 146.335938 164.300781 147.007812 164.234375 147.675781 164.101562 C 148.34375 163.96875 148.996094 163.769531 149.625 163.511719 C 150.253906 163.25 150.851562 162.929688 151.417969 162.550781 C 151.984375 162.171875 152.507812 161.742188 152.988281 161.261719 C 153.472656 160.78125 153.902344 160.257812 154.28125 159.691406 C 154.660156 159.125 154.980469 158.527344 155.238281 157.898438 C 155.5 157.269531 155.699219 156.621094 155.832031 155.953125 C 155.964844 155.285156 156.03125 154.609375 156.03125 153.929688 C 156.03125 153.246094 155.964844 152.574219 155.832031 151.90625 C 155.699219 151.234375 155.5 150.585938 155.238281 149.957031 C 154.980469 149.328125 154.660156 148.730469 154.28125 148.164062 C 153.902344 147.597656 153.472656 147.074219 152.992188 146.589844 C 152.507812 146.109375 151.984375 145.679688 151.417969 145.300781 C 150.851562 144.921875 150.253906 144.601562 149.625 144.339844 C 148.996094 144.078125 148.347656 143.882812 147.679688 143.75 C 147.011719 143.617188 146.335938 143.546875 145.65625 143.546875 Z M 145.648438 157.539062 C 145.171875 157.539062 144.710938 157.445312 144.265625 157.261719 C 143.824219 157.078125 143.433594 156.816406 143.09375 156.476562 C 142.757812 156.136719 142.496094 155.746094 142.3125 155.300781 C 142.128906 154.859375 142.039062 154.398438 142.039062 153.917969 C 142.042969 153.4375 142.132812 152.976562 142.316406 152.535156 C 142.5 152.09375 142.761719 151.703125 143.101562 151.363281 C 143.441406 151.023438 143.832031 150.765625 144.277344 150.582031 C 144.71875 150.398438 145.179688 150.308594 145.660156 150.308594 C 146.140625 150.308594 146.601562 150.402344 147.042969 150.585938 C 147.484375 150.769531 147.875 151.03125 148.214844 151.371094 C 148.554688 151.710938 148.8125 152.101562 148.996094 152.542969 C 149.179688 152.988281 149.269531 153.449219 149.269531 153.929688 C 149.269531 154.40625 149.175781 154.867188 148.992188 155.308594 C 148.808594 155.753906 148.546875 156.140625 148.210938 156.480469 C 147.871094 156.820312 147.480469 157.078125 147.039062 157.261719 C 146.59375 157.445312 146.132812 157.539062 145.65625 157.539062 Z M 145.648438 172.183594 C 144.96875 172.183594 144.292969 172.25 143.625 172.382812 C 142.957031 172.515625 142.308594 172.710938 141.679688 172.972656 C 141.050781 173.234375 140.453125 173.554688 139.886719 173.933594 C 139.320312 174.308594 138.796875 174.742188 138.3125 175.222656 C 137.832031 175.703125 137.402344 176.226562 137.023438 176.792969 C 136.644531 177.359375 136.324219 177.957031 136.066406 178.589844 C 135.804688 179.21875 135.605469 179.867188 135.472656 180.535156 C 135.339844 181.203125 135.273438 181.878906 135.273438 182.558594 C 135.273438 183.238281 135.339844 183.914062 135.472656 184.582031 C 135.605469 185.25 135.804688 185.898438 136.066406 186.527344 C 136.324219 187.160156 136.644531 187.757812 137.023438 188.324219 C 137.402344 188.890625 137.832031 189.414062 138.3125 189.894531 C 138.796875 190.378906 139.320312 190.808594 139.886719 191.1875 C 140.453125 191.5625 141.050781 191.882812 141.679688 192.144531 C 142.308594 192.40625 142.957031 192.601562 143.625 192.734375 C 144.292969 192.867188 144.96875 192.933594 145.648438 192.933594 C 146.332031 192.933594 147.007812 192.867188 147.675781 192.734375 C 148.34375 192.601562 148.992188 192.40625 149.621094 192.144531 C 150.25 191.882812 150.847656 191.5625 151.414062 191.1875 C 151.980469 190.808594 152.503906 190.378906 152.988281 189.894531 C 153.46875 189.414062 153.898438 188.890625 154.277344 188.324219 C 154.65625 187.757812 154.976562 187.160156 155.234375 186.527344 C 155.496094 185.898438 155.695312 185.25 155.828125 184.582031 C 155.960938 183.914062 156.027344 183.238281 156.027344 182.558594 C 156.023438 181.878906 155.957031 181.203125 155.824219 180.535156 C 155.691406 179.867188 155.496094 179.21875 155.234375 178.589844 C 154.972656 177.960938 154.652344 177.363281 154.273438 176.796875 C 153.898438 176.230469 153.46875 175.707031 152.984375 175.226562 C 152.503906 174.746094 151.980469 174.316406 151.414062 173.9375 C 150.847656 173.558594 150.25 173.238281 149.621094 172.976562 C 148.992188 172.714844 148.347656 172.519531 147.679688 172.386719 C 147.011719 172.25 146.335938 172.183594 145.65625 172.183594 Z M 145.648438 186.171875 C 145.171875 186.171875 144.710938 186.078125 144.265625 185.894531 C 143.824219 185.710938 143.433594 185.449219 143.097656 185.109375 C 142.757812 184.769531 142.496094 184.378906 142.3125 183.933594 C 142.132812 183.492188 142.039062 183.03125 142.039062 182.550781 C 142.039062 182.074219 142.132812 181.613281 142.316406 181.167969 C 142.5 180.726562 142.761719 180.335938 143.101562 179.996094 C 143.441406 179.660156 143.832031 179.398438 144.273438 179.214844 C 144.71875 179.03125 145.179688 178.941406 145.660156 178.941406 C 146.136719 178.941406 146.597656 179.035156 147.042969 179.21875 C 147.484375 179.402344 147.875 179.664062 148.214844 180.003906 C 148.550781 180.339844 148.8125 180.730469 148.996094 181.175781 C 149.179688 181.617188 149.269531 182.078125 149.269531 182.558594 C 149.269531 183.039062 149.179688 183.5 148.996094 183.941406 C 148.8125 184.382812 148.550781 184.773438 148.210938 185.113281 C 147.871094 185.453125 147.480469 185.714844 147.039062 185.894531 C 146.59375 186.078125 146.132812 186.171875 145.65625 186.171875 Z M 145.648438 200.816406 C 144.96875 200.816406 144.292969 200.882812 143.625 201.015625 C 142.957031 201.148438 142.308594 201.34375 141.679688 201.605469 C 141.046875 201.867188 140.449219 202.183594 139.882812 202.5625 C 139.316406 202.941406 138.792969 203.371094 138.3125 203.855469 C 137.828125 204.335938 137.398438 204.859375 137.019531 205.425781 C 136.640625 205.992188 136.320312 206.589844 136.058594 207.21875 C 135.800781 207.851562 135.601562 208.5 135.46875 209.167969 C 135.335938 209.835938 135.269531 210.511719 135.269531 211.191406 C 135.269531 211.875 135.335938 212.546875 135.46875 213.21875 C 135.601562 213.886719 135.796875 214.535156 136.058594 215.164062 C 136.320312 215.792969 136.640625 216.390625 137.019531 216.957031 C 137.394531 217.523438 137.828125 218.050781 138.308594 218.53125 C 138.789062 219.011719 139.3125 219.445312 139.882812 219.824219 C 140.449219 220.199219 141.046875 220.519531 141.675781 220.78125 C 142.304688 221.042969 142.953125 221.238281 143.621094 221.371094 C 144.289062 221.503906 144.964844 221.570312 145.648438 221.570312 C 146.328125 221.570312 147.003906 221.503906 147.671875 221.371094 C 148.339844 221.238281 148.988281 221.042969 149.617188 220.78125 C 150.25 220.523438 150.847656 220.203125 151.414062 219.824219 C 151.980469 219.445312 152.503906 219.015625 152.984375 218.53125 C 153.46875 218.050781 153.898438 217.527344 154.277344 216.960938 C 154.65625 216.394531 154.976562 215.796875 155.234375 215.164062 C 155.496094 214.535156 155.695312 213.886719 155.828125 213.21875 C 155.960938 212.550781 156.027344 211.875 156.027344 211.195312 C 156.023438 210.511719 155.957031 209.839844 155.824219 209.171875 C 155.691406 208.503906 155.496094 207.855469 155.234375 207.226562 C 154.972656 206.597656 154.652344 206 154.273438 205.433594 C 153.898438 204.867188 153.46875 204.34375 152.984375 203.859375 C 152.503906 203.378906 151.980469 202.949219 151.414062 202.570312 C 150.847656 202.191406 150.25 201.871094 149.621094 201.609375 C 148.992188 201.347656 148.347656 201.152344 147.679688 201.019531 C 147.011719 200.882812 146.335938 200.816406 145.65625 200.816406 Z M 145.648438 214.804688 C 145.171875 214.804688 144.710938 214.714844 144.265625 214.53125 C 143.824219 214.34375 143.433594 214.082031 143.097656 213.746094 C 142.757812 213.40625 142.496094 213.011719 142.3125 212.570312 C 142.132812 212.128906 142.039062 211.667969 142.039062 211.1875 C 142.039062 210.707031 142.132812 210.246094 142.316406 209.804688 C 142.5 209.363281 142.761719 208.972656 143.101562 208.632812 C 143.441406 208.292969 143.832031 208.03125 144.273438 207.851562 C 144.71875 207.667969 145.179688 207.574219 145.660156 207.578125 C 146.136719 207.578125 146.597656 207.667969 147.042969 207.851562 C 147.484375 208.035156 147.875 208.296875 148.214844 208.636719 C 148.550781 208.976562 148.8125 209.367188 148.996094 209.808594 C 149.179688 210.253906 149.269531 210.714844 149.269531 211.195312 C 149.269531 211.671875 149.179688 212.132812 148.996094 212.578125 C 148.8125 213.019531 148.550781 213.410156 148.210938 213.75 C 147.871094 214.085938 147.480469 214.347656 147.039062 214.53125 C 146.59375 214.714844 146.132812 214.804688 145.65625 214.804688 Z M 164.617188 239.828125 C 164.617188 239.378906 164.703125 238.945312 164.875 238.53125 C 165.046875 238.117188 165.292969 237.753906 165.609375 237.433594 C 165.925781 237.117188 166.292969 236.875 166.707031 236.703125 C 167.121094 236.53125 167.550781 236.445312 168 236.445312 L 252.015625 236.445312 C 252.464844 236.445312 252.894531 236.53125 253.308594 236.703125 C 253.722656 236.875 254.089844 237.117188 254.40625 237.433594 C 254.722656 237.753906 254.96875 238.117188 255.136719 238.53125 C 255.308594 238.945312 255.394531 239.378906 255.394531 239.828125 C 255.394531 240.273438 255.308594 240.707031 255.136719 241.121094 C 254.96875 241.535156 254.722656 241.902344 254.40625 242.21875 C 254.089844 242.535156 253.722656 242.777344 253.308594 242.949219 C 252.894531 243.121094 252.464844 243.207031 252.015625 243.207031 L 168 243.207031 C 167.550781 243.207031 167.121094 243.121094 166.707031 242.949219 C 166.292969 242.777344 165.929688 242.53125 165.613281 242.214844 C 165.296875 241.898438 165.050781 241.535156 164.878906 241.121094 C 164.707031 240.707031 164.625 240.273438 164.625 239.828125 Z M 145.648438 229.449219 C 144.96875 229.449219 144.292969 229.515625 143.625 229.652344 C 142.957031 229.785156 142.308594 229.980469 141.679688 230.242188 C 141.050781 230.5 140.453125 230.820312 139.886719 231.199219 C 139.320312 231.578125 138.796875 232.007812 138.3125 232.488281 C 137.832031 232.972656 137.402344 233.496094 137.023438 234.0625 C 136.644531 234.628906 136.324219 235.226562 136.066406 235.855469 C 135.804688 236.484375 135.605469 237.132812 135.472656 237.800781 C 135.339844 238.46875 135.273438 239.144531 135.273438 239.828125 C 135.273438 240.507812 135.339844 241.183594 135.472656 241.851562 C 135.605469 242.519531 135.804688 243.167969 136.066406 243.796875 C 136.324219 244.425781 136.644531 245.023438 137.023438 245.589844 C 137.402344 246.15625 137.832031 246.679688 138.3125 247.164062 C 138.796875 247.644531 139.320312 248.074219 139.886719 248.453125 C 140.453125 248.832031 141.050781 249.152344 141.679688 249.414062 C 142.308594 249.671875 142.957031 249.871094 143.625 250.003906 C 144.292969 250.136719 144.96875 250.203125 145.648438 250.203125 C 146.332031 250.203125 147.007812 250.136719 147.675781 250.003906 C 148.34375 249.871094 148.992188 249.671875 149.621094 249.414062 C 150.25 249.152344 150.847656 248.832031 151.414062 248.453125 C 151.980469 248.074219 152.503906 247.644531 152.988281 247.164062 C 153.46875 246.679688 153.898438 246.15625 154.277344 245.589844 C 154.65625 245.023438 154.976562 244.425781 155.234375 243.796875 C 155.496094 243.167969 155.695312 242.519531 155.828125 241.851562 C 155.960938 241.183594 156.027344 240.507812 156.027344 239.828125 C 156.023438 239.144531 155.957031 238.472656 155.824219 237.804688 C 155.691406 237.136719 155.496094 236.488281 155.234375 235.859375 C 154.972656 235.230469 154.652344 234.632812 154.273438 234.066406 C 153.898438 233.5 153.46875 232.976562 152.984375 232.496094 C 152.503906 232.011719 151.980469 231.582031 151.414062 231.203125 C 150.847656 230.824219 150.25 230.507812 149.621094 230.246094 C 148.992188 229.984375 148.347656 229.785156 147.679688 229.652344 C 147.011719 229.519531 146.335938 229.453125 145.65625 229.449219 Z M 145.648438 243.441406 C 145.171875 243.441406 144.710938 243.347656 144.269531 243.164062 C 143.824219 242.980469 143.433594 242.71875 143.097656 242.378906 C 142.757812 242.039062 142.496094 241.648438 142.3125 241.207031 C 142.132812 240.761719 142.039062 240.300781 142.039062 239.824219 C 142.039062 239.34375 142.132812 238.882812 142.316406 238.441406 C 142.5 237.996094 142.761719 237.605469 143.101562 237.269531 C 143.441406 236.929688 143.832031 236.667969 144.273438 236.484375 C 144.71875 236.304688 145.179688 236.210938 145.65625 236.210938 C 146.136719 236.210938 146.597656 236.304688 147.039062 236.488281 C 147.484375 236.671875 147.875 236.933594 148.210938 237.269531 C 148.550781 237.609375 148.8125 238 148.996094 238.445312 C 149.179688 238.886719 149.269531 239.347656 149.269531 239.828125 C 149.269531 240.304688 149.179688 240.765625 148.996094 241.210938 C 148.8125 241.652344 148.550781 242.042969 148.210938 242.382812 C 147.871094 242.722656 147.480469 242.980469 147.039062 243.164062 C 146.59375 243.347656 146.132812 243.441406 145.65625 243.441406 Z M 265.277344 197.84375 L 281.65625 181.363281 C 281.972656 181.046875 282.339844 180.800781 282.753906 180.628906 C 283.167969 180.457031 283.597656 180.371094 284.042969 180.371094 C 284.492188 180.367188 284.921875 180.453125 285.339844 180.625 C 285.753906 180.792969 286.117188 181.035156 286.4375 181.351562 C 286.753906 181.667969 287 182.03125 287.171875 182.445312 C 287.34375 182.859375 287.433594 183.289062 287.433594 183.738281 C 287.4375 184.183594 287.351562 184.617188 287.183594 185.03125 C 287.011719 185.445312 286.769531 185.8125 286.457031 186.128906 L 267.6875 205.011719 C 267.027344 205.679688 266.230469 206.011719 265.292969 206.011719 C 264.363281 206.011719 263.566406 205.679688 262.90625 205.019531 L 253.097656 195.234375 C 252.78125 194.917969 252.535156 194.550781 252.367188 194.136719 C 252.195312 193.722656 252.109375 193.292969 252.109375 192.84375 C 252.109375 192.398438 252.195312 191.964844 252.367188 191.550781 C 252.539062 191.136719 252.78125 190.773438 253.097656 190.453125 C 253.414062 190.136719 253.78125 189.894531 254.195312 189.722656 C 254.609375 189.550781 255.039062 189.464844 255.488281 189.464844 C 255.9375 189.464844 256.367188 189.550781 256.78125 189.722656 C 257.195312 189.890625 257.5625 190.136719 257.878906 190.453125 Z M 265.277344 197.84375 " fill-opacity="1" fill-rule="nonzero"/></g></svg>